<svg width="512" height="512" viewBox="0 0 512 512" xmlns="http://www.w3.org/2000/svg" role="img" aria-label="Nhanh Games">
  <defs>
    <linearGradient id="flame" x1="0" y1="0" x2="0" y2="1">
      <stop offset="0%" stop-color="#ffb347" />
      <stop offset="50%" stop-color="#ff7a18" />
      <stop offset="100%" stop-color="#ff3c00" />
    </linearGradient>
  </defs>
  <rect width="512" height="512" rx="120" fill="#111827" />
  <g transform="translate(80 80)">
    <path d="M160 74c0-26 14-50 34-74 4 24 32 40 32 74 0 38-28 70-48 70s-48-32-48-70z" fill="url(#flame)" />
    <path d="M48 220c0-74 52-120 98-120h92c46 0 98 46 98 120 0 39-24 62-53 62-31 0-43-22-63-22s-32 22-63 22-43-22-63-22-32 22-63 22c-29 0-53-23-53-62z" fill="#f8fafc" />
    <rect x="82" y="198" width="22" height="58" rx="6" fill="#111827" />
    <rect x="60" y="220" width="66" height="22" rx="6" fill="#111827" />
    <circle cx="260" cy="222" r="11" fill="#111827" />
    <circle cx="286" cy="206" r="11" fill="#111827" />
    <circle cx="286" cy="238" r="11" fill="#111827" />
    <circle cx="312" cy="222" r="11" fill="#111827" />
    <text x="32" y="330" font-size="64" font-family="Inter, 'Segoe UI', sans-serif" font-weight="600" fill="#f8fafc" letter-spacing="1">
      nhanh-
    </text>
    <text x="32" y="390" font-size="64" font-family="Inter, 'Segoe UI', sans-serif" font-weight="600" fill="#f8fafc" letter-spacing="1">
      games
    </text>
  </g>
</svg>
